<svg xmlns="http://www.w3.org/2000/svg" xmlns:xlink="http://www.w3.org/1999/xlink" width="40" height="47" viewBox="0 0 40 47">
    <defs>
        <path id="prefix__a" d="M0 0.14L39.939 0.14 39.939 46.209 0 46.209z"/>
    </defs>
    <g fill="none" fill-rule="evenodd">
        <path fill="#72BF98" d="M19.97 44.481c1.931-.728 11.063-4.404 15.718-14.477 3.622-7.838 2.448-16.445 1.926-18.925L19.97 1.877 2.325 11.08C1.804 13.559.63 22.166 4.252 30.004 8.906 40.077 18.038 43.753 19.97 44.481"/>
        <g transform="translate(0 .004)">
            <mask id="prefix__b" fill="#fff">
                <use xlink:href="#prefix__a"/>
            </mask>
            <path fill="#1F2F59" d="M34.115 29.273C30.31 37.505 23.359 41.228 19.97 42.615c-3.39-1.387-10.341-5.11-14.145-13.342-3.217-6.961-2.367-14.523-1.95-17.053L19.97 3.827l16.094 8.393c.418 2.53 1.267 10.092-1.95 17.053m5.196-18.556c-.107-.507-.435-.94-.895-1.18L20.771.337c-.502-.263-1.1-.263-1.603 0l-17.644 9.2c-.46.24-.787.673-.894 1.18-.23 1.096-2.13 10.965 2.049 20.01 4.587 9.927 13.193 14.056 16.68 15.371.196.074.404.111.61.111.208 0 .415-.037.612-.111 3.487-1.315 12.092-5.444 16.68-15.372 4.18-9.044 2.279-18.913 2.049-20.009" mask="url(#prefix__b)"/>
        </g>
        <path fill="#1F2F59" d="M27.066 20.517h-4.485v-4.45c0-.66-.536-1.196-1.195-1.196h-2.833c-.66 0-1.195.536-1.195 1.195v4.451h-4.485c-.659 0-1.195.536-1.195 1.196v2.967c0 .659.536 1.195 1.195 1.195h4.485v4.417c0 .66.536 1.196 1.195 1.196h2.833c.659 0 1.195-.537 1.195-1.196v-4.417h4.485c.66 0 1.196-.536 1.196-1.195v-2.967c0-.66-.537-1.196-1.196-1.196"/>
    </g>
</svg>
